<svg width="24" height="25" viewBox="0 0 24 25" fill="none" xmlns="http://www.w3.org/2000/svg">
<path fill-rule="evenodd" clip-rule="evenodd" d="M7.8 2.25H16.2C19.4 2.25 22 4.85 22 8.05V16.45C22 19.65 19.4 22.25 16.2 22.25H7.8C6.26174 22.25 4.78649 21.6389 3.69878 20.5512C2.61107 19.4635 2 17.9883 2 16.45V8.05C2 4.85 4.6 2.25 7.8 2.25ZM7.6 4.25C6.64522 4.25 5.72955 4.62928 5.05442 5.30442C4.37928 5.97955 4 6.89522 4 7.85V16.65C4 17.6048 4.37928 18.5205 5.05442 19.1956C5.72955 19.8707 6.64522 20.25 7.6 20.25H16.4C17.3548 20.25 18.2705 19.8707 18.9456 19.1956C19.6207 18.5205 20 17.6048 20 16.65V7.85C20 6.89522 19.6207 5.97955 18.9456 5.30442C18.2705 4.62928 17.3548 4.25 16.4 4.25H7.6ZM18.5 7C18.5 6.66848 18.3683 6.35054 18.1339 6.11612C17.8995 5.8817 17.5815 5.75 17.25 5.75C16.9185 5.75 16.6005 5.8817 16.3661 6.11612C16.1317 6.35054 16 6.66848 16 7C16 7.33152 16.1317 7.64946 16.3661 7.88388C16.6005 8.1183 16.9185 8.25 17.25 8.25C17.5815 8.25 17.8995 8.1183 18.1339 7.88388C18.3683 7.64946 18.5 7.33152 18.5 7ZM12 7.25C13.3261 7.25 14.5979 7.77678 15.5355 8.71447C16.4732 9.65215 17 10.9239 17 12.25C17 13.5761 16.4732 14.8479 15.5355 15.7855C14.5979 16.7232 13.3261 17.25 12 17.25C10.6739 17.25 9.40215 16.7232 8.46447 15.7855C7.52678 14.8479 7 13.5761 7 12.25C7 10.9239 7.52678 9.65215 8.46447 8.71447C9.40215 7.77678 10.6739 7.25 12 7.25ZM9 12.25C9 11.4544 9.31607 10.6913 9.87868 10.1287C10.4413 9.56607 11.2044 9.25 12 9.25C12.7956 9.25 13.5587 9.56607 14.1213 10.1287C14.6839 10.6913 15 11.4544 15 12.25C15 13.0456 14.6839 13.8087 14.1213 14.3713C13.5587 14.9339 12.7956 15.25 12 15.25C11.2044 15.25 10.4413 14.9339 9.87868 14.3713C9.31607 13.8087 9 13.0456 9 12.25Z" fill="#97999E"/>
</svg>
