<svg width="20" height="21" viewBox="0 0 20 21" fill="none" xmlns="http://www.w3.org/2000/svg">
<path d="M17.04 17.2901H14.08V12.6501C14.08 11.5501 14.06 10.1201 12.54 10.1201C10.99 10.1201 10.76 11.3201 10.76 12.5701V17.2901H7.79V7.75014H10.64V9.05014H10.68C10.9645 8.56487 11.375 8.16555 11.8679 7.89446C12.3608 7.62336 12.9178 7.49057 13.48 7.51014C16.48 7.51014 17.04 9.49014 17.04 12.0601V17.2901ZM4.45 6.45014C4.22413 6.45014 4.00046 6.40565 3.79178 6.31921C3.5831 6.23277 3.39349 6.10608 3.23378 5.94636C3.07406 5.78665 2.94737 5.59703 2.86093 5.38835C2.77449 5.17967 2.73 4.95601 2.73 4.73014C2.73 4.50427 2.77449 4.2806 2.86093 4.07192C2.94737 3.86324 3.07406 3.67363 3.23378 3.51392C3.39349 3.3542 3.5831 3.2275 3.79178 3.14107C4.00046 3.05463 4.22413 3.01014 4.45 3.01014C4.90617 3.01014 5.34366 3.19135 5.66622 3.51392C5.98879 3.83648 6.17 4.27397 6.17 4.73014C6.17 5.18631 5.98879 5.6238 5.66622 5.94636C5.34366 6.26893 4.90617 6.45014 4.45 6.45014ZM5.93 17.3001H2.96V7.75014H5.93V17.2901V17.3001ZM18.52 0.250139H1.48C1.28827 0.247494 1.09789 0.282645 0.919739 0.353584C0.74159 0.424523 0.579161 0.52986 0.441727 0.66358C0.304292 0.7973 0.194545 0.956783 0.118753 1.13292C0.0429611 1.30906 0.00260852 1.4984 0 1.69014V18.8101C0.00260852 19.0019 0.0429611 19.1912 0.118753 19.3674C0.194545 19.5435 0.304292 19.703 0.441727 19.8367C0.579161 19.9704 0.74159 20.0758 0.919739 20.1467C1.09789 20.2176 1.28827 20.2528 1.48 20.2501H18.52C18.7117 20.2528 18.9021 20.2176 19.0803 20.1467C19.2584 20.0758 19.4208 19.9704 19.5583 19.8367C19.6957 19.703 19.8055 19.5435 19.8812 19.3674C19.957 19.1912 19.9974 19.0019 20 18.8101V1.69014C19.9974 1.4984 19.957 1.30906 19.8812 1.13292C19.8055 0.956783 19.6957 0.7973 19.5583 0.66358C19.4208 0.52986 19.2584 0.424523 19.0803 0.353584C18.9021 0.282645 18.7117 0.247494 18.52 0.250139Z" fill="#97999E"/>
</svg>
